<?xml version="1.0" encoding="UTF-8" standalone="no"?>
<svg
   xmlns="http://www.w3.org/2000/svg"
   height="100"
   width="100"
   version="1.1"
   viewBox="0 0 100 100">
  <path
     d="m 49.999,12.288 c 12.282,0 13.737,0.046 18.588,0.268 4.484,0.204 6.920,0.953 8.541,1.583 a 14.251,14.252 0 0 1 5.289,3.441 14.251,14.252 0 0 1 3.441,5.289 c 0.629,1.620 1.379,4.056 1.583,8.541 0.221,4.850 0.268,6.305 0.268,18.588 0,12.282 -0.046,13.737 -0.268,18.588 -0.204,4.484 -0.954,6.920 -1.583,8.541 a 15.233,15.233 0 0 1 -8.730,8.730 c -1.620,0.629 -4.056,1.379 -8.541,1.583 -4.849,0.221 -6.304,0.268 -18.588,0.268 -12.283,0 -13.737,-0.046 -18.588,-0.268 -4.484,-0.204 -6.920,-0.954 -8.541,-1.583 a 14.251,14.251 0 0 1 -5.289,-3.441 14.252,14.252 0 0 1 -3.441,-5.289 c -0.629,-1.620 -1.379,-4.056 -1.583,-8.541 -0.221,-4.850 -0.268,-6.305 -0.268,-18.588 0,-12.282 0.046,-13.737 0.268,-18.588 0.204,-4.484 0.953,-6.920 1.583,-8.541 a 14.251,14.252 0 0 1 3.441,-5.289 14.252,14.252 0 0 1 5.289,-3.441 c 1.620,-0.629 4.056,-1.379 8.541,-1.583 4.850,-0.221 6.305,-0.268 18.588,-0.268 m 0,-8.288 c -12.492,0 -14.059,0.052 -18.965,0.276 -4.896,0.223 -8.240,1.000 -11.165,2.138 A 22.548,22.548 0 0 0 11.721,11.720 22.548,22.548 0 0 0 6.414,19.868 C 5.277,22.794 4.500,26.138 4.277,31.034 4.052,35.940 4,37.507 4,50.000 c 0,12.492 0.052,14.059 0.277,18.965 0.223,4.896 1.000,8.240 2.138,11.166 a 22.548,22.548 0 0 0 5.305,8.147 22.548,22.548 0 0 0 8.147,5.305 c 2.926,1.137 6.269,1.914 11.165,2.138 C 35.941,95.947 37.507,96 50.000,96 c 12.492,0 14.059,-0.052 18.965,-0.276 4.896,-0.223 8.240,-1.000 11.165,-2.138 a 23.521,23.521 0 0 0 13.453,-13.453 c 1.137,-2.926 1.914,-6.269 2.138,-11.166 0.223,-4.906 0.276,-6.472 0.276,-18.965 0,-12.492 -0.052,-14.059 -0.276,-18.965 -0.223,-4.896 -1.000,-8.240 -2.138,-11.166 A 22.548,22.548 0 0 0 88.279,11.720 22.548,22.548 0 0 0 80.131,6.414 C 77.205,5.277 73.861,4.500 68.965,4.277 64.059,4.052 62.492,3.999 49.999,3.999 v 0 z"
     fill="currentColor" />
  <path
     d="m 49.999,26.378 a 23.621,23.621 0 1 0 23.621,23.621 23.621,23.621 0 0 0 -23.621,-23.621 z m 0,38.954 A 15.333,15.333 0 1 1 65.333,50.000 15.333,15.333 0 0 1 49.999,65.333 Z"
     fill="currentColor" />
  <ellipse
     cy="25.45"
     cx="74.55"
     rx="5.5"
     ry="5.5"
     fill="currentColor" />
</svg>
