<?xml version="1.0" encoding="UTF-8" standalone="no"?>
<svg
   xmlns:dc="http://purl.org/dc/elements/1.1/"
   xmlns:cc="http://creativecommons.org/ns#"
   xmlns:rdf="http://www.w3.org/1999/02/22-rdf-syntax-ns#"
   xmlns:svg="http://www.w3.org/2000/svg"
   xmlns="http://www.w3.org/2000/svg"
   xmlns:sodipodi="http://sodipodi.sourceforge.net/DTD/sodipodi-0.dtd"
   xmlns:inkscape="http://www.inkscape.org/namespaces/inkscape"
   viewBox="0 0 889.33331 632"
   height="632"
   width="889.33331"
   id="svg815"
   version="1.1"
   sodipodi:docname="Kalapawai Logo Min.svg"
   inkscape:version="0.92.2 5c3e80d, 2017-08-06">
  <sodipodi:namedview
     pagecolor="#ffffff"
     bordercolor="#666666"
     borderopacity="1"
     objecttolerance="10"
     gridtolerance="10"
     guidetolerance="10"
     inkscape:pageopacity="0"
     inkscape:pageshadow="2"
     inkscape:window-width="1290"
     inkscape:window-height="748"
     id="namedview41"
     showgrid="false"
     inkscape:zoom="0.7286357"
     inkscape:cx="481.55942"
     inkscape:cy="408.69892"
     inkscape:window-x="0"
     inkscape:window-y="0"
     inkscape:window-maximized="0"
     inkscape:current-layer="svg815" />
  <metadata
     id="metadata821">
    <rdf:RDF>
      <cc:Work
         rdf:about="">
        <dc:format>image/svg+xml</dc:format>
        <dc:type
           rdf:resource="http://purl.org/dc/dcmitype/StillImage" />
        <dc:title />
      </cc:Work>
    </rdf:RDF>
  </metadata>
  <defs
     id="defs819" />
  <g
     style="display:inline"
     id="layer4">
    <path
       id="path942"
       d="M 437,32 A 375,285 0 0 0 62,317 375,285 0 0 0 437,602 375,285 0 0 0 812,317 375,285 0 0 0 437,32 Z m 0,151.66211 A 214.72495,129.33769 0 0 1 651.72461,313 214.72495,129.33769 0 0 1 437,442.33789 214.72495,129.33769 0 0 1 222.27539,313 214.72495,129.33769 0 0 1 437,183.66211 Z"
       style="display:inline;opacity:1;fill:#ffffff;fill-opacity:1;fill-rule:nonzero;stroke:#006646;stroke-width:4;stroke-linecap:round;stroke-linejoin:round;stroke-miterlimit:4;stroke-dasharray:none;stroke-dashoffset:0;stroke-opacity:1" />
    <path
       id="ellipse946"
       d="M 437,42.568359 A 364.38522,273.94012 0 0 0 72.615234,316.50781 364.38522,273.94012 0 0 0 437,590.44727 364.38522,273.94012 0 0 0 801.38477,316.50781 364.38522,273.94012 0 0 0 437,42.568359 Z m 0,124.025391 A 236.15074,146.40674 0 0 1 673.15039,313 236.15074,146.40674 0 0 1 437,459.40625 236.15074,146.40674 0 0 1 200.84961,313 236.15074,146.40674 0 0 1 437,166.59375 Z"
       style="display:inline;opacity:1;fill:#006646;fill-opacity:1;fill-rule:nonzero;stroke:none;stroke-width:3.86571765;stroke-linecap:round;stroke-linejoin:round;stroke-miterlimit:4;stroke-dasharray:none;stroke-dashoffset:0;stroke-opacity:0.39215686" />
  </g>
  <g
     style="display:inline;opacity:1"
     id="layer2">
    <path
       id="path848"
       d="M 188,432 H 24 L 57,372 30,310 h 158 z"
       style="opacity:1;vector-effect:none;fill:#ffffff;fill-opacity:1;stroke:#006646;stroke-width:4;stroke-linecap:butt;stroke-linejoin:miter;stroke-miterlimit:4;stroke-dasharray:none;stroke-dashoffset:0;stroke-opacity:1" />
    <path
       style="opacity:1;vector-effect:none;fill:#ffffff;fill-opacity:1;stroke:#006646;stroke-width:4;stroke-linecap:butt;stroke-linejoin:miter;stroke-miterlimit:4;stroke-dasharray:none;stroke-dashoffset:0;stroke-opacity:1"
       d="m 687.99999,432 h 164 l -33,-60 27,-62 h -158 z"
       id="path860" />
    <rect
       transform="matrix(0.85957123,0.51101595,0,1,0,0)"
       y="190.23383"
       x="153.56493"
       height="129.99998"
       width="65.148766"
       id="rect827"
       style="opacity:1;fill:#ffffff;fill-opacity:1;fill-rule:nonzero;stroke:#006646;stroke-width:4.31438637;stroke-linecap:round;stroke-linejoin:round;stroke-miterlimit:4;stroke-dasharray:none;stroke-dashoffset:0;stroke-opacity:1" />
    <rect
       style="opacity:1;fill:#ffffff;fill-opacity:1;fill-rule:nonzero;stroke:#006646;stroke-width:4.31438637;stroke-linecap:round;stroke-linejoin:round;stroke-miterlimit:4;stroke-dasharray:none;stroke-dashoffset:0;stroke-opacity:1"
       id="rect858"
       width="65.148766"
       height="129.99998"
       x="-865.54779"
       y="711.01666"
       transform="matrix(-0.85957123,0.51101595,0,1,0,0)" />
    <rect
       y="269"
       x="132"
       height="129.70795"
       width="612"
       id="rect864"
       style="opacity:1;fill:#ffffff;fill-opacity:1;fill-rule:nonzero;stroke:#006646;stroke-width:4;stroke-linecap:round;stroke-linejoin:round;stroke-miterlimit:4;stroke-dasharray:none;stroke-dashoffset:0;stroke-opacity:1" />
    <rect
       style="opacity:1;fill:#ffffff;fill-opacity:1;fill-rule:nonzero;stroke:#006646;stroke-width:4;stroke-linecap:round;stroke-linejoin:round;stroke-miterlimit:4;stroke-dasharray:none;stroke-dashoffset:0;stroke-opacity:1"
       id="rect866"
       width="580"
       height="98.292023"
       x="148"
       y="284.70798" />
    <flowRoot
       style="font-style:normal;font-variant:normal;font-weight:normal;font-stretch:normal;font-size:24px;line-height:1.25;font-family:Helvetica;-inkscape-font-specification:Helvetica;letter-spacing:0px;word-spacing:0px;fill:#000000;fill-opacity:1;stroke:none"
       id="flowRoot953"
       xml:space="preserve"><flowRegion
         id="flowRegion955"><rect
           y="472"
           x="40"
           height="100"
           width="790"
           id="rect957" /></flowRegion><flowPara
         id="flowPara959" /></flowRoot>  </g>
  <g
     style="display:none"
     id="layer5">
    <path
       id="path900"
       d="m 185,262 c 37.04364,-64.02418 141.51482,-110.38322 251,-110.47266 108.0661,0.0858 204.76592,41.72665 242.8457,104.57422"
       style="display:inline;opacity:1;fill:none;fill-opacity:1;fill-rule:nonzero;stroke:none;stroke-width:2;stroke-linecap:round;stroke-linejoin:round;stroke-miterlimit:4;stroke-dasharray:none;stroke-dashoffset:0;stroke-opacity:0.39215686" />
    <path
       id="ellipse951"
       d="M 167.91992,450.0918 C 227.89158,516.82584 328.84966,556.94189 437,557.01172 c 102.9412,-0.10593 199.67657,-36.51276 260.55859,-98.0625"
       style="display:inline;opacity:1;fill:none;fill-opacity:1;fill-rule:nonzero;stroke:none;stroke-width:3.41035795;stroke-linecap:round;stroke-linejoin:round;stroke-miterlimit:4;stroke-dasharray:none;stroke-dashoffset:0;stroke-opacity:0.39215686" />
    <path
       id="ellipse987"
       d="M 328.18945,258.38086 C 356.89424,243.53937 396.08453,235.17108 437,235.14648 c 38.81902,0.0362 76.1586,7.58473 104.44922,21.11524"
       style="display:inline;opacity:1;fill:none;fill-opacity:1;fill-rule:nonzero;stroke:none;stroke-width:2.61918163;stroke-linecap:round;stroke-linejoin:round;stroke-miterlimit:4;stroke-dasharray:none;stroke-dashoffset:0;stroke-opacity:0.39215686" />
  </g>
  <g
     style="display:inline"
     id="layer6">
    <g
       aria-label="KALAPAWAI"
       style="font-style:normal;font-variant:normal;font-weight:normal;font-stretch:normal;font-size:24px;line-height:1.25;font-family:Helvetica;-inkscape-font-specification:Helvetica;letter-spacing:0px;word-spacing:0px;display:inline;opacity:1;fill:#ffffff;fill-opacity:1;stroke:none"
       id="text933">
      <path
         d="m 176.03955,207.68792 37.63483,-0.31151 q 9.28617,-0.0489 14.26064,-1.66061 4.93653,-1.64925 8.43105,-4.72538 l 1.40405,1.38934 -24.21962,24.47616 -1.40406,-1.38935 q 2.17789,-2.20095 2.39563,-3.86309 0.21734,-1.73763 -0.6934,-2.63883 -0.91074,-0.90119 -2.00724,-1.23516 -1.05895,-0.37192 -5.02236,-0.31329 l -35.14301,0.37388 16.58306,16.40927 q 3.9086,3.86763 5.64902,4.61345 1.32418,0.55927 3.20883,0.0208 2.52538,-0.73055 4.32777,-2.55203 l 1.7273,-1.74559 1.40405,1.38935 -21.70378,21.93367 -1.40406,-1.38935 1.80239,-1.82148 q 3.15418,-3.18759 2.72165,-6.46954 -0.31313,-2.11233 -4.94273,-6.69341 l -33.24203,-32.89363 q -3.9086,-3.86763 -5.68696,-4.65101 -1.28624,-0.52172 -3.13334,-0.0212 -2.56293,0.7685 -4.36532,2.58998 l -1.80239,1.82148 -1.40406,-1.38934 21.70379,-21.93367 1.40406,1.38934 -1.7273,1.74558 q -1.76484,1.78354 -2.54423,4.31688 -0.55689,1.77717 0.20684,3.43413 0.76372,1.65696 4.55847,5.41194 l 15.74822,15.58318 q 0.03,-1.4724 0.32499,-9.96764 0.83057,-21.48396 -0.29457,-27.25374 -0.50406,-2.52658 -1.64248,-3.65307 -0.87279,-0.86365 -2.30645,-0.7051 -1.4716,0.121 -3.34909,2.01838 l -1.16404,1.17637 -1.40406,-1.38934 18.6998,-18.89787 1.40406,1.38934 q -1.61424,1.70725 -2.54861,3.4864 -0.93437,1.77916 -1.67264,4.95403 -0.77622,3.13731 -0.97368,8.64981 -0.0671,1.58584 0.15663,15.40106 z"
         style="font-style:normal;font-variant:normal;font-weight:normal;font-stretch:normal;font-size:109.33333588px;line-height:1;font-family:'Times New Roman';-inkscape-font-specification:'Times New Roman, Normal';font-variant-ligatures:normal;font-variant-caps:normal;font-variant-numeric:normal;font-feature-settings:normal;text-align:start;letter-spacing:-7.90999985px;writing-mode:lr-tb;text-anchor:start;fill:#ffffff"
         id="path4537" />
      <path
         d="m 265.57062,164.02056 -24.89678,12.87177 0.88391,12.40403 q 0.32454,4.57997 1.28073,6.42944 0.76004,1.4701 2.72372,1.89723 1.98658,0.35518 6.8056,-1.71559 l 0.90715,1.75463 -20.24938,10.46904 -0.90715,-1.75463 q 3.66314,-2.79534 4.26028,-4.54642 1.2417,-3.52668 0.57779,-12.01787 l -4.74121,-64.61836 1.65979,-0.85812 50.03931,41.92017 q 6.03748,5.05195 9.22413,5.86845 3.20956,0.74457 7.26821,-1.05328 l 0.90716,1.75463 -25.371,13.11695 -0.90716,-1.75463 q 3.74315,-2.17562 4.50707,-3.95284 0.81134,-1.80172 0.002,-3.36666 -1.07878,-2.08659 -5.30485,-5.61102 z m -3.14214,-2.82277 -24.34284,-20.34843 2.24399,31.77366 z"
         style="font-style:normal;font-variant:normal;font-weight:normal;font-stretch:normal;font-size:109.33333588px;line-height:1;font-family:'Times New Roman';-inkscape-font-specification:'Times New Roman, Normal';font-variant-ligatures:normal;font-variant-caps:normal;font-variant-numeric:normal;font-feature-settings:normal;text-align:start;letter-spacing:-7.90999985px;writing-mode:lr-tb;text-anchor:start;fill:#ffffff"
         id="path4539" />
      <path
         d="m 350.36511,139.38699 1.79621,-0.13007 -0.49537,20.59279 -53.85136,15.56147 -0.54836,-1.89762 2.61564,-0.75585 q 4.41068,-1.27455 5.47836,-4.69498 0.60277,-1.95242 -1.1164,-7.90171 l -12.96788,-44.87613 q -1.8822,-6.51345 -3.79249,-7.73967 -2.65229,-1.67863 -6.60139,-0.53745 l -2.61564,0.75584 -0.54836,-1.89762 31.49023,-9.09975 0.54835,1.89762 q -5.55381,1.54932 -7.49921,3.27845 -1.89411,1.7143 -2.24045,3.59261 -0.34634,1.87832 1.44693,8.08404 l 12.62702,43.69654 q 1.23009,4.25682 2.51012,5.60959 0.92667,0.89918 2.35705,1.04154 1.43038,0.14236 8.14898,-1.79912 l 5.07741,-1.46722 q 8.00078,-2.31199 10.89099,-4.42528 2.89021,-2.11329 4.69755,-5.8586 1.79252,-3.79659 2.59207,-11.02942 z"
         style="font-style:normal;font-variant:normal;font-weight:normal;font-stretch:normal;font-size:109.33333588px;line-height:1;font-family:'Times New Roman';-inkscape-font-specification:'Times New Roman, Normal';font-variant-ligatures:normal;font-variant-caps:normal;font-variant-numeric:normal;font-feature-settings:normal;text-align:start;letter-spacing:-7.90999985px;writing-mode:lr-tb;text-anchor:start;fill:#ffffff"
         id="path4541" />
      <path
         d="m 399.21205,128.8144 -27.84639,3.17972 -3.58363,11.90792 q -1.32492,4.39614 -1.08871,6.46473 0.18776,1.64427 1.8713,2.7416 1.73052,1.03824 6.97091,0.81598 l 0.22409,1.96251 -22.64839,2.58617 -0.2241,-1.96251 q 4.41762,-1.31042 5.59828,-2.73482 2.41436,-2.85484 4.81256,-11.02734 l 18.54128,-62.082464 1.85642,-0.211981 31.86707,56.971245 q 3.84702,6.86831 6.53522,8.76438 2.73518,1.83697 7.16784,1.59948 l 0.2241,1.96251 -28.3768,3.24027 -0.2241,-1.9625 q 4.27208,-0.70275 5.61792,-2.09227 1.39888,-1.39558 1.19901,-3.14592 -0.26649,-2.3338 -2.9635,-7.1304 z m -1.93332,-3.75543 -15.51839,-27.673309 -9.1986,30.495689 z"
         style="font-style:normal;font-variant:normal;font-weight:normal;font-stretch:normal;font-size:109.33333588px;line-height:1;font-family:'Times New Roman';-inkscape-font-specification:'Times New Roman, Normal';font-variant-ligatures:normal;font-variant-caps:normal;font-variant-numeric:normal;font-feature-settings:normal;text-align:start;letter-spacing:-7.90999985px;writing-mode:lr-tb;text-anchor:start;fill:#ffffff"
         id="path4543" />
      <path
         d="m 446.85953,117.69677 -0.88616,21.06861 q -0.28717,6.8273 1.13676,8.5436 1.92814,2.43214 6.03518,2.60488 l 2.77359,0.11666 -0.083,1.97352 -30.98953,-1.30345 0.083,-1.97351 2.72025,0.11441 q 4.58709,0.19294 6.68624,-2.711 1.13631,-1.60861 1.39655,-7.79585 l 1.96527,-46.724314 q 0.28716,-6.827297 -1.08343,-8.541357 -1.98148,-2.434378 -6.08852,-2.607124 l -2.72025,-0.114416 0.083,-1.973516 26.50912,1.114998 q 9.70756,0.408309 15.22283,2.670725 5.51751,2.209079 9.15819,7.117713 3.64069,4.908633 3.36699,11.415901 -0.37241,8.85415 -6.47294,14.15455 -6.04719,5.30264 -16.71484,4.85395 -2.61358,-0.10993 -5.63815,-0.61117 -3.02458,-0.50125 -6.46016,-1.39381 z m 0.12788,-3.04028 q 2.80449,0.65229 4.98014,1.01096 2.17565,0.35867 3.72246,0.42373 5.54718,0.23332 9.72703,-3.86548 4.23542,-4.1499 4.52259,-10.97719 0.19742,-4.69377 -1.5545,-8.774903 -1.74967,-4.134472 -5.18699,-6.256056 -3.43507,-2.174922 -7.91549,-2.363372 -2.72025,-0.114416 -7.02993,0.719534 z"
         style="letter-spacing:-11.40999985px"
         id="path4545" />
      <path
         d="m 526.41237,136.72262 -27.52853,-5.26425 -6.96985,10.29866 q -2.57495,3.80146 -2.96601,5.84644 -0.31084,1.62549 0.96913,3.17473 1.34244,1.50682 6.41091,2.85653 l -0.37101,1.94011 -22.38987,-4.28159 0.37101,-1.94011 q 4.60741,0.0658 6.15894,-0.94199 3.1555,-2.00551 7.88048,-9.09181 l 36.20192,-53.734839 1.83523,0.35095 13.43885,63.879809 q 1.62512,7.70275 3.62603,10.31385 2.06337,2.56868 6.36536,3.66311 l -0.371,1.94011 -28.05288,-5.36452 0.371,-1.94011 q 4.28737,0.60246 5.98618,-0.32279 1.75125,-0.91523 2.08215,-2.64559 0.44119,-2.30715 -0.70364,-7.68959 z m -0.72618,-4.16097 -6.56525,-31.04078 -17.8696,26.36813 z"
         style="letter-spacing:-22.21000099px"
         id="path4547" />
      <path
         d="m 652.09662,130.16755 -0.75328,1.82599 q -2.6156,-1.07902 -4.631,-0.8132 -2.0154,0.26583 -4.55459,2.22131 -1.69958,1.32011 -6.50905,6.959 l -40.90693,46.24496 -1.97404,-0.81436 2.40171,-49.07819 -32.80191,36.53711 -1.77663,-0.73292 3.03566,-63.77382 q 0.34443,-7.13438 0.22047,-8.51376 -0.21338,-2.28251 -1.5742,-3.883389 -1.29112,-1.62987 -4.20282,-2.831045 l 0.75328,-1.825986 24.77418,10.22016 -0.75328,1.82599 -1.18442,-0.48861 q -2.6156,-1.07903 -4.48604,-0.46465 -1.87044,0.61437 -2.56264,2.29231 -0.71256,1.72728 -1.10634,8.84129 l -2.31641,42.99192 24.27617,-27.34933 0.34688,-6.44037 0.27343,-5.14242 q -0.0184,-2.89509 -0.52792,-5.29975 -0.25474,-1.20234 -0.92774,-2.23072 -0.86732,-1.39729 -1.93822,-2.30107 -0.81552,-0.68292 -2.83891,-1.51764 l 0.75328,-1.82598 26.05732,10.74949 -0.75328,1.82598 -1.77664,-0.73292 q -2.76365,-1.14009 -4.53539,-0.485 -1.77174,0.65509 -2.60646,2.67848 -1.0383,2.5169 -1.40308,9.70062 l -2.17325,41.66498 27.94064,-31.61258 q 4.69594,-5.22373 5.67317,-7.59258 0.46826,-1.13507 0.13517,-2.42747 -0.28374,-1.27205 -1.20659,-2.11475 -1.59031,-1.46455 -4.60072,-2.70644 l 0.75328,-1.82599 z"
         style="letter-spacing:-22.27000046px"
         id="path4549" />
      <path
         d="m 660.6156,198.57574 -22.10727,-17.22791 -10.89646,5.99235 q -4.0241,2.21091 -5.30388,3.85316 -1.01727,1.30538 -0.58367,3.26764 0.50853,1.95296 4.40551,5.4636 l -1.21416,1.55804 -17.98057,-14.01204 1.21416,-1.55803 q 4.07149,2.15764 5.91178,1.9674 3.72269,-0.34767 11.15726,-4.50317 l 56.70765,-31.34094 1.47382,1.14853 -17.13992,62.98775 q -2.06263,7.59729 -1.47103,10.83326 0.66653,3.22667 3.9975,6.16086 l -1.21415,1.55804 -22.52836,-17.55606 1.21416,-1.55804 q 3.54209,2.48959 5.47589,2.4399 1.97591,-0.0169 3.05881,-1.40647 1.44386,-1.8528 2.87693,-7.16577 z m 1.24926,-4.03489 8.29757,-30.62324 -27.9204,15.33141 z"
         style="font-style:normal;font-variant:normal;font-weight:normal;font-stretch:normal;font-size:109.33333588px;line-height:1;font-family:'Times New Roman';-inkscape-font-specification:'Times New Roman, Normal';font-variant-ligatures:normal;font-variant-caps:normal;font-variant-numeric:normal;font-feature-settings:normal;text-align:start;letter-spacing:-7.90999985px;writing-mode:lr-tb;text-anchor:start;fill:#ffffff"
         id="path4551" />
      <path
         d="m 683.13788,257.83268 -1.59765,1.16153 -18.2393,-25.08739 1.59765,-1.16154 1.50686,2.07262 q 2.63701,3.62709 5.94575,3.72967 2.13518,0.0317 7.4031,-3.7982 l 37.82541,-27.50023 q 4.4475,-3.23347 5.46433,-4.83077 0.76556,-1.21662 0.56961,-3.12027 -0.34498,-2.65333 -1.85184,-4.72596 l -1.50686,-2.07262 1.59765,-1.16154 18.2393,25.0874 -1.59765,1.16153 -1.53825,-2.1158 q -2.60561,-3.58391 -5.91435,-3.68649 -2.16658,-0.0749 -7.4345,3.75502 l -37.82541,27.50023 q -4.4475,3.23347 -5.46433,4.83077 -0.76556,1.21663 -0.53822,3.16345 0.31359,2.61016 1.82045,4.68278 z"
         style="font-style:normal;font-variant:normal;font-weight:normal;font-stretch:normal;font-size:109.33333588px;line-height:1;font-family:'Times New Roman';-inkscape-font-specification:'Times New Roman, Normal';font-variant-ligatures:normal;font-variant-caps:normal;font-variant-numeric:normal;font-feature-settings:normal;text-align:start;letter-spacing:-7.90999985px;writing-mode:lr-tb;text-anchor:start;fill:#ffffff"
         id="path4553" />
    </g>
    <g
       aria-label="MARKET &amp; CAFE"
       style="font-style:normal;font-variant:normal;font-weight:normal;font-stretch:normal;font-size:85.33333588px;line-height:1.25;font-family:'Times New Roman';-inkscape-font-specification:'Times New Roman, Normal';font-variant-ligatures:normal;font-variant-caps:normal;font-variant-numeric:normal;font-feature-settings:normal;text-align:start;letter-spacing:0px;word-spacing:0px;writing-mode:lr-tb;text-anchor:start;display:inline;opacity:1;fill:#ffffff;fill-opacity:1;stroke:none"
       id="text976">
      <path
         d="m 188.00078,470.11221 12.26423,-40.69857 -20.29837,22.99435 q -2.80054,3.17251 -2.80982,4.56422 -0.002,1.89492 2.02849,3.68727 l 1.21824,1.07541 -0.82896,0.93906 -11.9794,-10.57486 0.82896,-0.93906 1.21825,1.07541 q 2.18269,1.92677 4.2614,1.41357 1.2753,-0.31927 3.8294,-3.2126 l 19.85027,-22.48676 q 2.01639,-2.28421 2.40497,-3.7475 0.2944,-1.04968 -0.24436,-2.38327 -0.49097,-1.33656 -2.59752,-3.19612 l 0.82896,-0.93907 9.74595,8.60328 -11.28403,37.95122 36.055,-16.08455 9.74595,8.60328 -0.82896,0.93906 -1.19286,-1.053 q -2.20807,-1.94918 -4.28678,-1.43598 -1.2753,0.31927 -3.8294,3.2126 l -19.85028,22.48676 q -2.80054,3.17251 -2.78444,4.58661 -0.002,1.89493 2.02849,3.68728 l 1.19286,1.053 -0.82896,0.93907 -14.61893,-12.90492 0.82897,-0.93907 1.21824,1.07541 q 2.20807,1.94918 4.2614,1.41357 1.2753,-0.31926 3.8294,-3.21259 l 20.29836,-22.99436 -38.83718,17.24119 z"
         style="font-style:normal;font-variant:normal;font-weight:normal;font-stretch:normal;font-size:69.33333588px;font-family:'Times New Roman';-inkscape-font-specification:'Times New Roman, Normal';font-variant-ligatures:normal;font-variant-caps:normal;font-variant-numeric:normal;font-feature-settings:normal;text-align:start;letter-spacing:2px;writing-mode:lr-tb;text-anchor:start;fill:#ffffff"
         id="path4575" />
      <path
         d="m 250.28664,495.52642 -15.33306,-8.98846 -6.3508,4.67492 q -2.34555,1.72515 -3.01326,2.86418 -0.53075,0.90538 -0.0947,2.10282 0.48239,1.18536 3.22471,3.06765 l -0.63347,1.08062 -12.47088,-7.31062 0.63347,-1.08062 q 2.73931,1.01719 3.88035,0.74427 2.3113,-0.52871 6.63884,-3.76047 l 33.03808,-24.42703 1.02221,0.59923 -5.52722,41.02522 q -0.66371,4.94788 -0.0222,6.93288 0.68784,1.97292 3.02632,3.53998 l -0.63347,1.08062 -15.62512,-9.15968 0.63348,-1.08061 q 2.43415,1.26996 3.64569,1.07762 1.24075,-0.17523 1.80574,-1.13902 0.75332,-1.28506 1.21157,-4.74445 z m 0.44918,-2.64061 2.66491,-19.9426 -16.27482,11.96426 z"
         style="font-style:normal;font-variant:normal;font-weight:normal;font-stretch:normal;font-size:69.33333588px;font-family:'Times New Roman';-inkscape-font-specification:'Times New Roman, Normal';font-variant-ligatures:normal;font-variant-caps:normal;font-variant-numeric:normal;font-feature-settings:normal;text-align:start;letter-spacing:2px;writing-mode:lr-tb;text-anchor:start;fill:#ffffff"
         id="path4577" />
      <path
         d="m 303.74961,536.43558 -11.35236,-4.61672 -6.30864,-25.7361 q -1.62487,-0.5877 -2.6284,-0.99581 -0.40768,-0.1658 -0.87808,-0.3571 -0.45765,-0.22266 -0.94666,-0.45807 l -5.02483,12.35588 q -1.63243,4.01409 -1.1497,5.34335 0.63053,1.86447 3.0139,2.83373 l 1.66209,0.67593 -0.47188,1.16032 -18.22022,-7.40971 0.47188,-1.16032 1.59936,0.65042 q 2.69697,1.09679 4.57148,-0.1875 1.05392,-0.70434 2.53331,-4.34212 l 11.17196,-27.47145 q 1.63243,-4.01409 1.1497,-5.34335 -0.66189,-1.87722 -3.07662,-2.85923 l -1.59936,-0.65043 0.47187,-1.16032 15.49189,6.30017 q 6.77378,2.75473 9.56441,5.05909 2.83473,2.28577 3.97726,5.85686 1.18665,3.5525 -0.3055,7.22163 -1.59417,3.92001 -5.33901,5.75936 -3.71348,1.85211 -9.56068,0.86297 l 3.81976,15.77002 q 1.30162,5.42658 2.90432,7.68641 1.6027,2.25982 4.93063,4.05177 z m -21.31067,-34.13949 q 0.59584,0.24232 1.02213,0.45222 0.43904,0.17855 0.72128,0.29333 6.08386,2.47416 10.22843,1.08974 4.17594,-1.37167 5.83387,-5.44848 1.61968,-3.98273 0.11839,-7.48045 -1.45718,-3.51633 -5.56535,-5.18702 -1.81889,-0.73969 -5.16585,-1.40644 z"
         style="font-style:normal;font-variant:normal;font-weight:normal;font-stretch:normal;font-size:69.33333588px;font-family:'Times New Roman';-inkscape-font-specification:'Times New Roman, Normal';font-variant-ligatures:normal;font-variant-caps:normal;font-variant-numeric:normal;font-feature-settings:normal;text-align:start;letter-spacing:2px;writing-mode:lr-tb;text-anchor:start;fill:#ffffff"
         id="path4579" />
      <path
         d="m 331.69518,517.57266 12.10013,20.5721 q 2.97029,5.0849 5.43225,7.30626 2.47057,2.18862 5.26778,3.13294 l -0.31805,1.21155 -21.12032,-5.54441 0.31805,-1.21155 q 1.89919,0.49856 2.88113,0.0913 1.02329,-0.4314 1.22959,-1.21727 0.2063,-0.78588 0.0422,-1.49398 -0.13138,-0.69952 -1.41985,-2.85783 l -11.34457,-19.18371 -3.75645,14.30943 q -0.88538,3.3727 -0.74337,4.56502 0.11255,0.90458 1.00565,1.76905 1.20172,1.1555 2.77346,1.56811 l 1.50626,0.39542 -0.31806,1.21155 -18.92642,-4.96848 0.31805,-1.21156 1.57175,0.41261 q 2.75055,0.72206 4.41605,-0.55578 1.06095,-0.84152 2.10966,-4.83637 l 7.53008,-28.68434 q 0.88539,-3.3727 0.75197,-4.59777 -0.12114,-0.87183 -0.9815,-1.72771 -1.23446,-1.16409 -2.8062,-1.5767 l -1.57175,-0.41261 0.31805,-1.21155 18.92643,4.96848 -0.31806,1.21155 -1.50625,-0.39541 q -1.539,-0.40401 -3.17747,-0.0291 -1.15262,0.25744 -1.82063,1.20212 -0.66801,0.94468 -1.52761,4.21914 l -3.56733,13.58904 q 0.81821,-0.45023 5.57771,-2.98092 12.06327,-6.35354 14.87568,-8.80036 1.22794,-1.07769 1.48582,-2.06003 0.19771,-0.75313 -0.34379,-1.4903 -0.53291,-0.76992 -2.17015,-1.19972 l -1.01508,-0.26648 0.31805,-1.21155 16.30685,4.2808 -0.31806,1.21155 q -1.44936,-0.34548 -2.72272,-0.29474 -1.27337,0.0507 -3.25116,0.65157 -1.9692,0.5681 -5.05951,2.20693 -0.89231,0.46578 -8.40935,4.96767 z"
         style="font-style:normal;font-variant:normal;font-weight:normal;font-stretch:normal;font-size:69.33333588px;font-family:'Times New Roman';-inkscape-font-specification:'Times New Roman, Normal';font-variant-ligatures:normal;font-variant-caps:normal;font-variant-numeric:normal;font-feature-settings:normal;text-align:start;letter-spacing:2px;writing-mode:lr-tb;text-anchor:start;fill:#ffffff"
         id="path4581" />
      <path
         d="m 376.13851,508.8623 -2.54047,17.96712 9.98918,1.41243 q 3.88841,0.5498 5.36161,-0.43858 1.9611,-1.29549 2.71203,-5.15546 l 1.24026,0.17537 -2.23712,15.82179 -1.24027,-0.17537 q -6e-5,-3.38491 -0.33664,-4.38984 -0.43749,-1.25854 -1.71704,-2.12329 -1.27956,-0.86474 -4.12882,-1.26761 l -9.98919,-1.41242 -2.11863,14.98377 q -0.42657,3.01686 -0.2532,3.7252 0.17811,0.67481 0.79165,1.17185 0.61828,0.46352 2.49544,0.72894 l 7.70977,1.09013 q 3.85489,0.54506 5.6738,0.25519 1.81891,-0.28986 3.65067,-1.63783 2.37215,-1.78443 5.14346,-5.66644 l 1.34083,0.18958 -5.53342,10.84251 -35.02918,-4.95296 0.17537,-1.24027 1.609,0.22751 q 1.60899,0.2275 3.1594,-0.33967 1.1485,-0.38466 1.66889,-1.40519 0.55392,-1.01579 1.02315,-4.33434 l 4.17566,-29.53177 q 0.61142,-4.32418 -0.11793,-5.45303 -1.01716,-1.51146 -3.8329,-1.9096 l -1.609,-0.2275 0.17537,-1.24027 35.02917,4.95297 -0.90487,10.02675 -1.30731,-0.18484 q -0.19679,-3.68626 -0.87874,-5.15032 -0.64843,-1.45932 -2.22494,-2.40024 -1.26973,-0.6924 -4.65533,-1.17111 z"
         style="font-style:normal;font-variant:normal;font-weight:normal;font-stretch:normal;font-size:69.33333588px;font-family:'Times New Roman';-inkscape-font-specification:'Times New Roman, Normal';font-variant-ligatures:normal;font-variant-caps:normal;font-variant-numeric:normal;font-feature-settings:normal;text-align:start;letter-spacing:2px;writing-mode:lr-tb;text-anchor:start;fill:#ffffff"
         id="path4583" />
      <path
         d="m 441.58137,511.56726 0.0899,10.77722 -1.28549,-0.0499 q -0.26183,-2.85605 -0.85731,-4.09883 -0.97253,-2.00277 -2.69618,-2.98442 -1.6885,-1.01416 -4.53011,-1.12445 l -6.46128,-0.25078 -1.36023,35.04653 q -0.16412,4.22859 0.70856,5.31273 1.23034,1.4707 3.90281,1.57442 l 1.58995,0.0617 -0.0486,1.25166 -19.4515,-0.75495 0.0486,-1.25166 1.62377,0.063 q 2.90927,0.11292 4.19538,-1.59891 0.78625,-1.05363 0.93592,-4.9101 l 1.36023,-35.04654 -5.51408,-0.21401 q -3.21372,-0.12473 -4.58525,0.29635 -1.78404,0.57448 -3.1066,2.35265 -1.32256,1.77817 -1.68016,4.88122 l -1.28549,-0.0499 0.95878,-10.73652 z"
         style="font-style:normal;font-variant:normal;font-weight:normal;font-stretch:normal;font-size:69.33333588px;font-family:'Times New Roman';-inkscape-font-specification:'Times New Roman, Normal';font-variant-ligatures:normal;font-variant-caps:normal;font-variant-numeric:normal;font-feature-settings:normal;text-align:start;letter-spacing:2px;writing-mode:lr-tb;text-anchor:start;fill:#ffffff"
         id="path4585" />
      <path
         d="m 493.80454,523.48328 14.11417,-1.72138 0.15164,1.2434 q -2.89496,0.5918 -4.17522,1.8393 -1.25076,1.2098 -3.55635,6.91369 -2.30559,5.70389 -5.43657,10.79224 3.4171,3.13017 5.9416,4.25469 2.5204,1.09092 4.90637,0.79992 2.31876,-0.28279 3.78016,-1.72291 1.4573,-1.47373 1.83022,-4.00887 l 1.35405,0.75569 q -0.66551,4.88997 -3.14653,7.4776 -2.48102,2.58762 -6.14399,3.03436 -2.75562,0.33607 -5.79239,-0.79418 -3.00727,-1.16796 -6.80223,-4.32026 -3.7162,4.20479 -6.90048,6.05966 -3.15478,1.81717 -6.95216,2.2803 -5.54485,0.67625 -9.16522,-1.88345 -3.62037,-2.5597 -4.12039,-6.65953 -0.49591,-4.06623 1.93591,-8.45541 2.42774,-4.4228 9.96427,-9.7415 -2.00569,-3.30231 -2.84748,-5.45058 -0.84588,-2.18187 -1.09589,-4.23178 -0.70085,-5.74649 3.16454,-9.28736 3.00641,-2.75402 7.20705,-3.26633 3.99902,-0.48772 6.8104,1.59086 2.80728,2.04497 3.22943,5.5063 0.43444,3.56215 -1.69086,6.54975 -2.09169,2.98351 -7.88568,6.93012 5.19411,7.07426 10.60215,12.82644 5.05382,-7.77842 4.46363,-12.61757 -0.18853,-1.54583 -1.34423,-2.63266 -0.84997,-0.81718 -2.24827,-0.81716 z m -12.73061,2.43936 q 3.92523,-2.49092 5.66776,-5.26132 1.77613,-2.77449 1.39907,-5.86617 -0.2951,-2.41957 -1.99996,-3.81458 -1.67125,-1.39911 -3.8892,-1.12861 -2.92364,0.35657 -4.18587,2.59092 -1.23272,2.19664 -0.995,4.14574 0.20082,1.64666 1.02212,3.6269 0.8172,1.94663 2.98108,5.70712 z m 7.77036,20.36796 q -5.17361,-5.50793 -7.22765,-8.08814 -2.05404,-2.5802 -4.60807,-6.46363 -3.74982,2.81058 -5.45956,5.84982 -1.67613,3.03513 -1.27858,6.29483 0.43854,3.59576 3.08928,6.03498 2.65073,2.43922 6.58253,1.9597 2.11713,-0.25821 3.96377,-1.33605 1.88024,-1.08194 4.93828,-4.25151 z"
         style="font-style:normal;font-variant:normal;font-weight:normal;font-stretch:normal;font-size:69.33333588px;font-family:'Times New Roman';-inkscape-font-specification:'Times New Roman, Normal';font-variant-ligatures:normal;font-variant-caps:normal;font-variant-numeric:normal;font-feature-settings:normal;text-align:start;letter-spacing:2px;writing-mode:lr-tb;text-anchor:start;fill:#ffffff"
         id="path4587" />
      <path
         d="m 563.01987,488.89362 5.53045,14.63171 -1.00437,0.30435 q -4.04108,-6.09793 -8.66043,-7.9172 -4.61935,-1.81926 -9.83563,-0.23857 -4.3739,1.32542 -7.22798,4.63113 -2.8639,3.27331 -3.43236,8.75173 -0.53606,5.4686 1.65335,12.69364 1.8065,5.96146 5.04349,9.7561 3.23698,3.79464 7.76698,4.96887 4.56241,1.16441 9.4871,-0.32792 4.2767,-1.29597 6.99922,-4.10194 2.7127,-2.83838 4.9836,-9.46942 l 1.20073,0.34362 q -1.52767,6.8657 -5.10926,10.92248 -3.58159,4.05678 -9.64026,5.89274 -10.91855,3.30866 -19.3669,-2.97484 -6.29724,-4.67138 -8.77137,-12.83599 -1.99305,-6.57706 -0.71377,-12.97836 1.27928,-6.40131 5.5177,-10.9755 4.26099,-4.61641 10.38445,-6.472 4.76269,-1.44324 10.10268,-0.51446 1.57676,0.30043 2.15995,0.1237 0.87478,-0.26508 1.33623,-1.07703 0.57729,-1.13004 0.46242,-2.79321 z"
         style="font-style:normal;font-variant:normal;font-weight:normal;font-stretch:normal;font-size:69.33333588px;font-family:'Times New Roman';-inkscape-font-specification:'Times New Roman, Normal';font-variant-ligatures:normal;font-variant-caps:normal;font-variant-numeric:normal;font-feature-settings:normal;text-align:start;letter-spacing:2px;writing-mode:lr-tb;text-anchor:start;fill:#ffffff"
         id="path4589" />
      <path
         d="m 605.51367,504.82873 -16.17355,7.36962 0.16977,7.88409 q 0.0615,2.911 0.60898,4.11247 0.43516,0.955 1.66545,1.28728 1.24706,0.28744 4.36439,-0.87258 l 0.51938,1.13985 -13.15449,5.99396 -0.51938,-1.13985 q 2.40801,-1.65528 2.84128,-2.74557 0.89736,-2.19464 0.74388,-7.59355 l -0.97087,-41.07618 1.07824,-0.4913 30.37494,28.1244 q 3.66507,3.38959 5.65771,4.00695 2.00942,0.57251 4.63656,-0.43856 l 0.51939,1.13985 -16.48162,7.50999 -0.51939,-1.13985 q 2.4392,-1.26025 2.97893,-2.36185 0.57054,-1.11564 0.10731,-2.13226 -0.61765,-1.3555 -3.18347,-3.72065 z m -1.90135,-1.88665 -14.77804,-13.65352 0.42208,20.19493 z"
         style="font-style:normal;font-variant:normal;font-weight:normal;font-stretch:normal;font-size:69.33333588px;font-family:'Times New Roman';-inkscape-font-specification:'Times New Roman, Normal';font-variant-ligatures:normal;font-variant-caps:normal;font-variant-numeric:normal;font-feature-settings:normal;text-align:start;letter-spacing:2px;writing-mode:lr-tb;text-anchor:start;fill:#ffffff"
         id="path4591" />
      <path
         d="m 619.05853,465.68563 9.65223,15.24566 7.06507,-4.47298 q 2.43129,-1.53929 2.87679,-3.30388 0.45598,-1.8113 -1.1823,-5.22171 l 1.05833,-0.67004 8.31215,13.129 -1.05833,0.67004 q -1.45923,-2.24156 -2.70135,-2.93771 -1.21351,-0.71425 -2.54059,-0.59529 -1.3166,0.0722 -3.26164,1.30368 l -7.06506,4.47298 7.71454,12.18509 q 1.86526,2.94616 2.83471,3.65465 0.73876,0.534 1.98004,0.46937 1.69318,-0.11033 3.06615,-0.97957 l 1.40157,-0.88736 0.67004,1.05833 -16.64723,10.53959 -0.67004,-1.05833 1.37296,-0.86924 q 2.4027,-1.52118 2.60228,-3.6109 0.10698,-1.34994 -2.10235,-4.83956 l -15.8637,-25.05666 q -1.86526,-2.94616 -2.83471,-3.65465 -0.73876,-0.534 -1.95144,-0.48747 -1.66457,0.0922 -3.06614,0.97956 l -1.37297,0.86925 -0.67004,-1.05833 28.86092,-18.27224 5.7684,8.28842 -1.00112,0.63382 q -2.46407,-2.24649 -4.262,-2.87122 -1.78743,-0.67144 -3.6084,-0.31994 -1.79236,0.3334 -4.82433,2.25298 z"
         style="font-style:normal;font-variant:normal;font-weight:normal;font-stretch:normal;font-size:69.33333588px;font-family:'Times New Roman';-inkscape-font-specification:'Times New Roman, Normal';font-variant-ligatures:normal;font-variant-caps:normal;font-variant-numeric:normal;font-feature-settings:normal;text-align:start;letter-spacing:2px;writing-mode:lr-tb;text-anchor:start;fill:#ffffff"
         id="path4593" />
      <path
         d="m 647.52166,445.84604 11.78695,13.79634 7.67035,-6.55319 q 2.98578,-2.5509 3.21995,-4.30941 0.32689,-2.32753 -2.06958,-5.44525 l 0.95236,-0.81365 10.37954,12.14902 -0.95235,0.81365 q -2.53742,-2.24033 -3.51351,-2.65317 -1.23298,-0.50505 -2.72811,-0.11823 -1.49513,0.38683 -3.68298,2.25603 l -7.67036,6.55318 9.82978,11.50554 q 1.97915,2.31655 2.62488,2.65542 0.62374,0.31312 1.40241,0.18218 0.75669,-0.15667 2.1981,-1.38814 l 5.92007,-5.05784 q 2.96004,-2.52891 3.94664,-4.08425 0.98661,-1.55534 1.18854,-3.82064 0.23243,-2.95927 -0.84332,-7.60608 l 1.02958,-0.87963 4.46527,11.32431 -26.89773,22.98015 -0.81365,-0.95236 1.23549,-1.05555 q 1.2355,-1.05555 1.83651,-2.59315 0.47181,-1.11553 0.0513,-2.18109 -0.39483,-1.08755 -2.57189,-3.63575 l -19.37369,-22.67646 q -2.83678,-3.32039 -4.16573,-3.52082 -1.80624,-0.23792 -3.96835,1.60929 l -1.2355,1.05554 -0.81365,-0.95236 26.89773,-22.98014 6.91729,7.31476 -1.00384,0.85763 q -2.89352,-2.29232 -4.44236,-2.75014 -1.52311,-0.47981 -3.27189,0.0792 -1.35943,0.49353 -3.95912,2.71457 z"
         style="font-style:normal;font-variant:normal;font-weight:normal;font-stretch:normal;font-size:69.33333588px;font-family:'Times New Roman';-inkscape-font-specification:'Times New Roman, Normal';font-variant-ligatures:normal;font-variant-caps:normal;font-variant-numeric:normal;font-feature-settings:normal;text-align:start;letter-spacing:2px;writing-mode:lr-tb;text-anchor:start;fill:#ffffff"
         id="path4595" />
    </g>
    <g
       aria-label="SINCE 1932"
       style="font-style:normal;font-variant:normal;font-weight:normal;font-stretch:normal;font-size:85.33333588px;line-height:1.25;font-family:'Times New Roman';-inkscape-font-specification:'Times New Roman, Normal';font-variant-ligatures:normal;font-variant-caps:normal;font-variant-numeric:normal;font-feature-settings:normal;text-align:start;letter-spacing:0px;word-spacing:0px;writing-mode:lr-tb;text-anchor:start;display:inline;opacity:1;fill:#006646;fill-opacity:1;stroke:none"
       id="text991">
      <path
         d="m 334.61548,223.74492 3.84942,8.9806 -0.70849,0.30369 q -1.45271,-2.4373 -3.0093,-3.58341 -1.53745,-1.15431 -3.56997,-1.34842 -2.03253,-0.19411 -3.79418,0.561 -1.99143,0.8536 -2.76823,2.63723 -0.785,1.76447 -0.12018,3.31549 0.50888,1.1872 1.75086,1.81084 1.80278,0.92725 7.29032,1.4084 4.47538,0.39366 6.24805,0.88049 1.7836,0.45947 3.09946,1.57277 1.33501,1.10509 1.99984,2.65611 1.26399,2.94885 -0.11455,6.0784 -1.3676,3.10219 -4.9675,4.64524 -1.12976,0.48426 -2.19934,0.73872 -0.63464,0.1587 -2.76562,0.36946 -2.12004,0.1834 -2.6179,0.3968 -0.47871,0.20519 -0.64282,0.61554 -0.14496,0.40213 0.10676,1.35956 l -0.70849,0.30368 -3.81659,-8.904 0.70849,-0.30369 q 1.69618,2.58227 3.13788,3.61896 1.43348,1.01755 3.55081,1.19797 2.13647,0.17222 4.2045,-0.71421 2.39355,-1.02597 3.23052,-2.88072 0.85613,-1.86296 0.11743,-3.58631 -0.41039,-0.95742 -1.36513,-1.70417 -0.93561,-0.75496 -2.40735,-1.12144 -0.99302,-0.25435 -5.12099,-0.6836 -4.13618,-0.4484 -6.02921,-0.95164 -1.87388,-0.51144 -3.17606,-1.53993 -1.30218,-1.0285 -1.99163,-2.63696 -1.19833,-2.79567 0.0845,-5.72551 1.2746,-2.949 4.58727,-4.36894 2.06803,-0.88643 4.82,-0.8647 1.2775,0.0191 1.71791,-0.1697 0.49786,-0.2134 0.68112,-0.63195 0.1942,-0.44591 -8e-5,-1.42796 z"
         style="font-size:42.66666794px;fill:#006646;fill-opacity:1"
         id="path4556" />
      <path
         d="m 362.29023,244.22671 0.23163,0.73522 -11.54481,3.63708 -0.23162,-0.73521 0.95379,-0.30048 q 1.66913,-0.52585 2.11747,-1.73739 0.27657,-0.78609 -0.48716,-3.2103 l -5.4838,-17.40663 q -0.64478,-2.04666 -1.10968,-2.62101 -0.35521,-0.43417 -1.08387,-0.59778 -1.02455,-0.20145 -1.97834,0.099 l -0.95379,0.30049 -0.23162,-0.73521 11.5448,-3.63709 0.23163,0.73521 -0.97366,0.30674 q -1.64926,0.51959 -2.0976,1.73113 -0.29644,0.79236 0.46728,3.21657 l 5.4838,17.40662 q 0.64479,2.04667 1.10969,2.62101 0.3552,0.43417 1.10374,0.59152 1.00468,0.20771 1.95847,-0.0928 z"
         style="font-size:42.66666794px;fill:#006646;fill-opacity:1"
         id="path4558" />
      <path
         d="m 357.06755,216.77373 7.49964,-1.59157 21.29303,17.14056 -3.38209,-15.93675 q -0.54061,-2.54743 -1.24531,-3.0581 -0.93569,-0.69591 -2.56605,-0.34992 l -0.95783,0.20327 -0.16002,-0.75404 9.61911,-2.04136 0.16002,0.75404 -0.97822,0.20759 q -1.75263,0.37195 -2.2614,1.58738 -0.30995,0.74729 0.1831,3.07055 l 4.94338,23.29373 -0.73366,0.1557 -22.94206,-18.3879 3.61131,17.01686 q 0.54062,2.54743 1.22493,3.06242 0.95607,0.69159 2.56605,0.34992 l 0.97821,-0.20759 0.16003,0.75404 -9.61911,2.04136 -0.16003,-0.75404 0.95784,-0.20327 q 1.77301,-0.37627 2.28178,-1.5917 0.30995,-0.74729 -0.18309,-3.07055 l -4.07841,-19.21784 q -1.50081,-1.15101 -2.22772,-1.46529 -0.70653,-0.3186 -1.99109,-0.45064 -0.62993,-0.058 -1.83232,0.19718 z"
         style="font-size:42.66666794px;fill:#006646;fill-opacity:1"
         id="path4560" />
      <path
         d="m 416.38521,206.7007 1.59571,9.49268 -0.64265,0.0641 q -1.71324,-4.16304 -4.28538,-5.81177 -2.57214,-1.64873 -5.90975,-1.31588 -2.79862,0.2791 -4.91559,1.93485 -2.11904,1.63502 -3.11496,4.87484 -0.97518,3.23775 -0.51416,7.86065 0.3804,3.81442 1.8826,6.49106 1.50219,2.67664 4.09724,3.92529 2.61579,1.24657 5.76682,0.93233 2.73643,-0.27289 4.71444,-1.64261 1.97594,-1.39044 4.13701,-5.12332 l 0.68399,0.35052 q -1.74032,3.9631 -4.386,5.98562 -2.64569,2.02253 -6.5223,2.40913 -6.98618,0.69671 -11.33816,-4.10345 -3.24535,-3.57058 -3.76633,-8.79467 -0.41967,-4.20829 1.11535,-7.9206 1.53502,-3.71232 4.6389,-5.96897 3.12255,-2.27945 7.04061,-2.67019 3.04739,-0.3039 6.1607,0.89306 0.91616,0.36924 1.28931,0.33203 0.55973,-0.0558 0.93506,-0.49105 0.48317,-0.61347 0.61197,-1.63128 z"
         style="font-size:42.66666794px;fill:#006646;fill-opacity:1"
         id="path4562" />
      <path
         d="m 430.82519,208.47138 0.0695,11.16645 6.20821,-0.0387 q 2.41662,-0.015 3.22456,-0.74926 1.07735,-0.96506 1.18729,-3.38246 l 0.77082,-0.005 0.0612,9.83315 -0.77082,0.005 q -0.30451,-2.06065 -0.5998,-2.64215 -0.37953,-0.72682 -1.23628,-1.13816 -0.85674,-0.41134 -2.62754,-0.40031 l -6.20821,0.0387 0.058,9.31232 q 0.0117,1.87496 0.18093,2.29058 0.16913,0.39479 0.58734,0.64219 0.41809,0.22657 1.58473,0.2193 l 4.79158,-0.0298 q 2.39579,-0.0149 3.47702,-0.35499 1.08124,-0.34007 2.07512,-1.32545 1.2836,-1.29968 2.62152,-3.91223 l 0.83332,-0.005 -2.39334,7.09838 -21.77041,0.13557 -0.005,-0.77082 0.99998,-0.006 q 0.99998,-0.006 1.89281,-0.49096 0.66458,-0.33748 0.88959,-1.00556 0.24584,-0.66821 0.233,-2.73067 l -0.1143,-18.35381 q -0.0167,-2.68745 -0.56228,-3.30907 -0.75518,-0.82864 -2.50514,-0.81774 l -0.99998,0.006 -0.005,-0.77082 21.77041,-0.13557 0.35102,6.18544 -0.81248,0.005 q -0.45137,-2.2264 -0.99822,-3.05635 -0.52601,-0.83007 -1.57038,-1.26108 -0.83527,-0.3073 -2.93939,-0.2942 z"
         style="font-size:42.66666794px;fill:#006646;fill-opacity:1"
         id="path4564" />
      <path
         d="m 466.62089,210.99634 7.20472,-2.5706 0.68326,0.0763 -2.64687,23.70687 q -0.26353,2.36033 -0.14192,2.96087 0.14232,0.60284 0.72879,0.98276 0.58647,0.37993 2.48667,0.63401 l -0.0855,0.76607 -10.55939,-1.17895 0.0855,-0.76607 q 1.99228,0.18051 2.60437,-0.0446 0.61441,-0.24585 0.89764,-0.71733 0.28554,-0.49219 0.56757,-3.01816 l 1.69214,-15.15583 q 0.34213,-3.06429 0.23217,-3.95701 -0.071,-0.67873 -0.42967,-1.03322 -0.33801,-0.35218 -0.87633,-0.41228 -0.76607,-0.0855 -2.20425,0.40374 z"
         style="font-size:42.66666794px;fill:#006646;fill-opacity:1"
         id="path4566" />
      <path
         d="m 482.1403,239.10963 0.14511,-0.75705 q 2.66775,0.46894 5.18684,-0.27852 2.52302,-0.76792 5.22356,-3.34731 2.721,-2.57547 4.24626,-5.99531 -3.60848,1.45079 -6.20701,0.95269 -2.92589,-0.56085 -4.58147,-3.21159 -1.65166,-2.6712 -0.93393,-6.41553 0.69812,-3.64203 3.33029,-6.08604 3.17951,-2.97547 7.23075,-2.1989 3.41696,0.65498 5.31056,3.94529 2.31661,4.07142 1.33218,9.20709 -0.88638,4.62415 -3.92625,8.19912 -3.03595,3.55452 -7.59314,5.4174 -3.70993,1.5374 -7.59749,0.79221 z m 15.41937,-11.82954 q 0.87816,-2.58931 1.18408,-4.18525 0.38044,-1.9847 0.1445,-4.40574 -0.23202,-2.4415 -1.24481,-3.9084 -0.99233,-1.46297 -2.56781,-1.76496 -1.82101,-0.34907 -3.50565,1.02502 -1.68464,1.37409 -2.30432,4.6069 -0.82755,4.31724 0.52674,7.10114 0.99266,2.01456 2.93644,2.38716 0.94119,0.18041 2.31651,-0.0226 1.37532,-0.20305 2.51432,-0.83323 z"
         style="font-size:42.66666794px;fill:#006646;fill-opacity:1"
         id="path4568" />
      <path
         d="m 509.36528,220.69288 q 1.94414,-2.41384 4.12974,-3.39416 2.21133,-0.99465 4.85609,-0.24114 3.26587,0.93047 4.4039,3.55093 0.87141,1.9596 0.35765,3.76284 -0.84484,2.96533 -5.47347,5.06925 2.22478,1.69532 2.98762,3.88393 0.76284,2.18862 0.0607,4.65305 -1.00469,3.52633 -3.98511,5.47163 -3.88427,2.53262 -9.43424,0.95138 -2.74494,-0.78205 -3.55265,-1.7487 -0.78768,-0.96093 -0.56505,-1.74234 0.16555,-0.58104 0.75196,-0.89054 0.60645,-0.30379 1.26764,-0.11541 0.5009,0.14271 0.97617,0.45142 0.31207,0.19722 1.33156,1.18088 1.0252,0.96362 1.45177,1.21513 0.67854,0.43161 1.52005,0.67136 2.04368,0.58226 3.99734,-0.57245 1.97371,-1.149 2.59022,-3.31289 0.45096,-1.58285 0.17784,-3.28534 -0.20127,-1.27044 -0.65684,-2.02844 -0.63321,-1.04691 -1.95324,-2.11619 -1.31432,-1.08932 -2.87713,-1.53458 l -0.64115,-0.18267 0.17125,-0.60108 q 1.63993,0.25061 3.49107,-0.24012 1.87118,-0.48502 2.96923,-1.60189 1.09805,-1.11687 1.54902,-2.69972 0.58797,-2.06371 -0.35474,-3.69702 -0.91696,-1.64765 -2.84042,-2.19566 -3.10558,-0.8848 -6.13693,1.8475 z"
         style="font-size:42.66666794px;fill:#006646;fill-opacity:1"
         id="path4570" />
      <path
         d="m 541.74588,250.16442 -3.86851,4.30327 -15.45808,-6.231 0.28818,-0.71494 q 9.32886,-3.47245 13.70022,-6.29268 4.37136,-2.82023 5.68766,-6.08575 1.00475,-2.49262 0.12473,-4.71171 -0.88002,-2.21908 -3.00551,-3.07585 -1.93226,-0.77887 -3.9376,-0.26194 -1.97824,0.5054 -3.59262,2.39288 l -0.71494,-0.28818 q 1.92398,-3.37996 4.6853,-4.49066 2.78064,-1.10291 5.77564,0.10435 3.18823,1.28514 4.48811,4.1901 1.3192,2.91275 0.19762,5.6952 -0.80224,1.99023 -2.53197,3.6066 -2.69165,2.5539 -7.30896,4.75835 -6.92987,3.31635 -8.56405,3.91552 l 6.84021,2.75722 q 2.08684,0.84118 2.98002,1.02152 0.9125,0.18812 1.77573,-0.003 0.87101,-0.21046 1.72389,-0.87747 z"
         style="font-size:42.66666794px;fill:#006646;fill-opacity:1"
         id="path4572" />
    </g>
    <g
       id="g877">
      <path
         style="display:inline;opacity:1;vector-effect:none;fill:#006646;fill-opacity:1;stroke:none;stroke-width:2;stroke-linecap:butt;stroke-linejoin:round;stroke-miterlimit:4;stroke-dasharray:none;stroke-dashoffset:0;stroke-opacity:0.39215686"
         d="M 371.08594,295.66992 C 367.45239,295.5813 358,297 358,297 l -29,47 -18,1 25,-43 -11,1 c -3,8 -27,43 -27,43 0,0 -16.53026,1.1354 -32.47656,2.7832 -16.82851,1.73897 -29.93218,11.26598 -29.74024,17.34571 0.2169,6.87012 8.26172,10.60937 28.26172,7.60937 C 284.04492,370.73828 293,365 303,352 c 12,-1 23,-2 23,-2 l -13,21 h 12 l 13,-23 13,-2 c 0,0 -2,-4 -8,-4 5,-10 21,-42 28,-45 2.1875,-0.9375 1.73755,-1.28979 0.0859,-1.33008 z M 292,353 c -6,6 -13.52355,9.87695 -21.0625,12.12305 -7.90291,2.35455 -20.46094,4.50781 -21.46094,-0.49219 C 248.47656,359.63086 260,356 267,355 c 7,-1 25,-2 25,-2 z"
         id="path887" />
      <path
         style="opacity:1;vector-effect:none;fill:#006646;fill-opacity:1;stroke:none;stroke-width:1;stroke-linecap:butt;stroke-linejoin:miter;stroke-miterlimit:4;stroke-dasharray:none;stroke-dashoffset:0;stroke-opacity:1"
         d="m 411,332 c -26,0 -39.61526,2 -50.24767,11.6947 -4.06417,3.70575 -9.75233,10.3053 -7.71946,18.03944 1.96192,7.46421 6.16985,9.8639 12.93984,9.77365 C 375.20324,371.38474 379,368 386,362 c -3,5 -1,10 4,10 12,0 25,-11 31,-15 -4,7 -5,15 3,15 8,0 18,-5 25,-12 -1,5 0,12 11,12 9,0 16,-7 21,-13 1,4 3.91299,6.2169 7.91299,6.2169 5,0 8.08701,-2.2169 10.08701,-5.2169 2,6 6.34805,11.30391 12.34805,11.30391 9,0 14.65195,-4.30391 17.65195,-8.30391 0,5 1.87012,8.2169 6.87012,8.2169 8,0 18.12988,-4.2169 28.12988,-13.2169 -1,7 -2.17368,14.15088 3.82598,14.08701 C 576,372 589,366 600,359 c -1,6 -2,13 4,13 10,0 24.004,-6.01248 26.86885,-11.73897 C 632,358 631,356 629,357 c -4,2 -6,4 -9,4 -3,0 -7,0 -4,-5 3,-5 12,-19 15,-22 1,-1 0,-2 -2,-2 h -6 c -1,0 -2,1 -3,2 -5,5 -29,26 -37,26 -8,0 -3.52207,-7 2.47793,-13 6,-6 8.52207,-11 9.52207,-13 1,-2 0,-2 -2,-2 h -6 c -2,0 -1.79083,0.11907 -3,2 -9,14 -37,30 -41,30 -4,0 -6,-5 7,-16 h -11 c -6,7 -17,15 -23,15 -6,0 -8.37994,-5.88936 -2.34805,-13.73897 C 520,341 524,339 553,339 l 3,-7 c -21,0 -33.95778,3.0846 -43.30137,7.69483 C 506,343 503.32189,347.01877 500.08701,351.87012 498,355 496.2483,357.55113 492.26103,357.87012 490.08575,358.04414 489,357 487.86632,352.30897 c 6,-7 9.34344,-11.75707 9.82851,-13.69736 C 498.73897,334.43506 498,332 495,332 c -3,0 -6.04287,1.73897 -9.04287,4.73897 -3,3 -4.95713,8.26103 -5.95713,12.26103 -5,9 -10,14 -16,14 -6,0 -6,-7 11,-28 h -9 c -13,15 -27,28 -33,28 -8,0 2.49,-16.49 15,-29 3,-3 -8,-3 -10.25977,-0.30517 -10.03686,11.96918 -16.52841,16.49536 -25.08701,22.21816 C 405.69609,360.56494 401,363 397,363 c -5,0 -4,-7 7,-16 h -11 c -4,7 -16,16 -23,16 -7,0 -6.62241,-7.64176 0,-15 9,-10 19,-10 39,-10 z"
         id="path857" />
      <path
         style="opacity:1;vector-effect:none;fill:#006646;fill-opacity:1;stroke:none;stroke-width:3;stroke-linecap:butt;stroke-linejoin:miter;stroke-miterlimit:4;stroke-dasharray:none;stroke-dashoffset:0;stroke-opacity:1"
         d="m 594,317 c 3.01625,-4.52438 7,-6 9,-5 2,1 2,5 0,9 -2,4 -7,6 -9,5 -2,-1 -3.01625,-4.47562 0,-9 z"
         id="path859" />
      <path
         id="path861"
         d="m 631,317 c 3.01625,-4.52438 7,-6 9,-5 2,1 2,5 0,9 -2,4 -7,6 -9,5 -2,-1 -3.01625,-4.47562 0,-9 z"
         style="opacity:1;vector-effect:none;fill:#006646;fill-opacity:1;stroke:none;stroke-width:3;stroke-linecap:butt;stroke-linejoin:miter;stroke-miterlimit:4;stroke-dasharray:none;stroke-dashoffset:0;stroke-opacity:1" />
    </g>
  </g>
</svg>
